<svg width="109" height="19" viewBox="0 0 109 19" fill="none" xmlns="http://www.w3.org/2000/svg">
<path fill-rule="evenodd" clip-rule="evenodd" d="M0 0.281227H4.7268C5.60825 0.281227 6.48912 0.361407 7.2898 0.481684C11.4553 1.08248 14.74 3.28581 14.74 9.13345C14.74 14.9416 11.4553 17.1838 7.2898 17.7445C6.48912 17.8648 5.60767 17.9043 4.7268 17.9043H0V0.281227ZM107.185 2.96449C107.825 2.96449 108.306 2.48397 108.306 1.76289C108.306 1.04239 107.825 0.521195 107.185 0.521195C106.543 0.521195 106.062 1.04181 106.062 1.76289C106.062 2.48397 106.543 2.96449 107.185 2.96449ZM107.185 0.241134C107.385 0.241058 107.583 0.280366 107.767 0.356814C107.952 0.433263 108.12 0.545352 108.261 0.686676C108.402 0.827999 108.515 0.995785 108.591 1.18045C108.667 1.36511 108.707 1.56303 108.707 1.76289C108.707 1.9628 108.668 2.16078 108.591 2.34551C108.515 2.53024 108.403 2.6981 108.261 2.83948C108.12 2.98087 107.952 3.09301 107.767 3.16949C107.583 3.24598 107.385 3.28531 107.185 3.28523C106.985 3.28523 106.787 3.24586 106.602 3.16937C106.418 3.09288 106.25 2.98077 106.109 2.83943C105.967 2.6981 105.855 2.53031 105.779 2.34564C105.702 2.16098 105.663 1.96306 105.663 1.76318C105.663 1.5633 105.702 1.36538 105.779 1.18072C105.855 0.996055 105.967 0.828264 106.109 0.686928C106.25 0.545593 106.418 0.433482 106.602 0.356991C106.787 0.280501 106.985 0.241134 107.185 0.241134ZM107.185 2.00344L107.104 1.88317H106.904V2.60424H106.583V0.882026H107.264C107.664 0.882026 107.905 1.0424 107.905 1.40264C107.905 1.68271 107.704 1.84307 107.424 1.88317L107.905 2.60424H107.545L107.185 2.00344ZM107.185 1.12258H107.224C107.384 1.12258 107.545 1.16267 107.545 1.36313C107.545 1.60369 107.385 1.64319 107.224 1.64319H106.905V1.12258H107.185ZM96.0497 7.7709C97.3716 7.61053 98.4523 7.04982 98.4523 5.3677C98.4523 3.76575 97.3722 3.32474 96.0497 3.12486H93.6459V7.85167H94.7674C95.2084 7.85167 95.6488 7.81099 96.0497 7.7709ZM96.0497 0.321319C99.174 0.441595 102.058 1.08249 102.058 5.08763C102.058 7.17068 100.736 8.8929 98.5331 9.17296C99.4546 9.29324 100.015 10.2148 100.336 11.016L103.1 17.9043H99.2542L97.1717 12.3774C96.8516 11.5762 96.5715 11.0951 96.0503 10.815C95.7702 10.6552 95.3298 10.5744 94.7679 10.5744H93.6465V17.9043H90.2021V0.281227H93.9266C94.607 0.281227 95.3687 0.281227 96.0497 0.321319ZM63.9661 5.56816C64.3665 6.60939 64.5664 7.77148 64.5664 9.09336C64.5664 10.3351 64.3665 11.5367 63.9661 12.618C62.7244 16.0212 59.7204 18.2251 55.5956 18.2251C50.0681 18.2251 46.5429 14.4599 46.5429 9.09278C46.5429 3.68499 50.1477 0.000580726 55.5956 0.000580726C59.7204 0.000580726 62.7244 2.16381 63.9661 5.56816ZM63.9661 1.84307L70.0549 17.9043H71.3361L78.1053 0.281227H74.4999L70.8957 9.5733L67.0509 0.281227H63.3659L63.9661 1.84307ZM78.9867 0.281227H89.2399V3.12486H82.4707V7.45074H88.6385V10.1735H82.4713V15.1409H89.2805V17.9043H78.9873L78.9867 0.281227ZM7.2898 3.40551C6.68899 3.20505 6.0481 3.12486 5.40779 3.12486H3.44502V15.1409H5.40779C6.04868 15.1409 6.68958 15.0206 7.2898 14.8207C9.41294 14.059 11.1352 12.0968 11.1352 9.13287C11.1357 6.16896 9.41294 4.126 7.2898 3.40551ZM16.1019 0.281227H19.5865V17.9043H16.1019V0.281227ZM30.7617 4.96736C29.5601 4.20619 28.2789 3.44502 26.9169 3.28523C25.6752 3.12486 24.3534 3.48511 24.3534 5.24742C24.3534 8.29152 31.9639 7.00973 31.9639 12.898C31.9639 16.7428 28.9198 18.6254 25.4353 18.2251C23.5527 18.024 22.4714 17.4633 20.9891 16.4628V12.8574C22.1512 13.4988 23.8728 14.74 25.2348 14.9805C26.7171 15.2211 28.319 14.7795 28.319 13.1781C28.319 9.77377 20.7491 11.1752 20.7491 5.36712C20.7491 1.44215 23.713 0 26.7571 0C28.2795 0 29.6008 0.560707 30.7623 1.60194L30.7617 4.96736ZM45.6615 16.142C44.78 17.2646 42.6975 17.9043 41.2955 18.0246C35.8883 18.3854 32.2835 15.3814 32.2835 9.41352C32.2835 3.40551 35.4478 -0.119114 41.2955 0.201623C42.457 0.241715 44.3396 0.642053 45.5813 1.68329V5.04812C44.099 4.12716 42.5773 3.48627 41.2955 3.44618C37.7308 3.3259 35.8883 5.56874 35.8883 9.17354C35.8883 12.7789 37.6105 14.7806 41.2955 14.6208C42.7371 14.5813 44.9003 13.4192 45.6615 12.7789V16.142Z" fill="#E3E3E3"/>
</svg>
