<svg width="53" height="66" viewBox="0 0 53 66" fill="none" xmlns="http://www.w3.org/2000/svg">
<path d="M38.103 25.5432H41.4764C41.5728 25.5432 41.7977 25.5101 41.894 25.5101C42.5366 25.3779 43.0827 24.7826 43.0827 23.9559C43.0827 23.1623 42.5366 22.5671 41.894 22.4017C41.7977 22.3687 41.6049 22.3687 41.4764 22.3687H38.103V25.5432Z" fill="url(#paint0_linear_1130_352)"/>
<path d="M41.0907 3.6189C37.878 3.6189 35.2436 6.29742 35.2436 9.6373V15.8872H43.5002C43.693 15.8872 43.9179 15.8872 44.0785 15.9202C45.9419 16.0194 47.3234 17.0115 47.3234 18.731C47.3234 20.0868 46.3917 21.2442 44.6568 21.4757V21.5418C46.5523 21.6741 47.998 22.7653 47.998 24.4518C47.998 26.2706 46.3917 27.461 44.2713 27.461H35.2114V39.6962H43.7894C47.0021 39.6962 49.6365 37.0177 49.6365 33.6778V3.6189H41.0907Z" fill="url(#paint1_linear_1130_352)"/>
<path d="M42.6651 19.1278C42.6651 18.3342 42.1189 17.8051 41.4764 17.7059C41.4121 17.7059 41.2515 17.6729 41.1551 17.6729H38.103V20.5828H41.1551C41.2515 20.5828 41.4443 20.5828 41.4764 20.5498C42.1189 20.4506 42.6651 19.9215 42.6651 19.1278V19.1278Z" fill="url(#paint2_linear_1130_352)"/>
<path d="M8.77087 3.6189C5.55816 3.6189 2.92373 6.29742 2.92373 9.6373V24.4849C4.56221 25.3116 6.26495 25.8407 7.96769 25.8407C9.9917 25.8407 11.084 24.5841 11.084 22.8645V15.8541H16.0959V22.8315C16.0959 25.5431 14.4574 27.7586 8.89938 27.7586C5.52603 27.7586 2.8916 26.9981 2.8916 26.9981V39.6632H11.4696C14.6823 39.6632 17.3167 36.9846 17.3167 33.6448V3.6189H8.77087Z" fill="url(#paint3_linear_1130_352)"/>
<path d="M24.9306 3.6189C21.7179 3.6189 19.0835 6.29742 19.0835 9.6373V17.5075C20.5613 16.2179 23.1315 15.3912 27.2759 15.5896C29.4927 15.6888 31.8701 16.3171 31.8701 16.3171V18.8633C30.6814 18.235 29.2678 17.6729 27.4366 17.5406C24.2881 17.3091 22.3926 18.8964 22.3926 21.6741C22.3926 24.4849 24.2881 26.0722 27.4366 25.8076C29.2678 25.6753 30.6814 25.0801 31.8701 24.4849V27.0311C31.8701 27.0311 29.5248 27.6594 27.2759 27.7586C23.1315 27.957 20.5613 27.1303 19.0835 25.8407V39.7293H27.6614C30.8742 39.7293 33.5086 37.0508 33.5086 33.7109V3.6189H24.9306Z" fill="url(#paint4_linear_1130_352)"/>
<defs>
<linearGradient id="paint0_linear_1130_352" x1="35.2382" y1="23.9599" x2="49.6756" y2="23.9599" gradientUnits="userSpaceOnUse">
<stop stop-color="#007940"/>
<stop offset="0.229" stop-color="#00873F"/>
<stop offset="0.743" stop-color="#40A737"/>
<stop offset="1" stop-color="#5CB531"/>
</linearGradient>
<linearGradient id="paint1_linear_1130_352" x1="35.2378" y1="21.643" x2="49.676" y2="21.643" gradientUnits="userSpaceOnUse">
<stop stop-color="#007940"/>
<stop offset="0.229" stop-color="#00873F"/>
<stop offset="0.743" stop-color="#40A737"/>
<stop offset="1" stop-color="#5CB531"/>
</linearGradient>
<linearGradient id="paint2_linear_1130_352" x1="35.2379" y1="19.1236" x2="49.6755" y2="19.1236" gradientUnits="userSpaceOnUse">
<stop stop-color="#007940"/>
<stop offset="0.229" stop-color="#00873F"/>
<stop offset="0.743" stop-color="#40A737"/>
<stop offset="1" stop-color="#5CB531"/>
</linearGradient>
<linearGradient id="paint3_linear_1130_352" x1="2.91698" y1="21.643" x2="17.5776" y2="21.643" gradientUnits="userSpaceOnUse">
<stop stop-color="#1F286F"/>
<stop offset="0.475" stop-color="#004E94"/>
<stop offset="0.826" stop-color="#0066B1"/>
<stop offset="1" stop-color="#006FBC"/>
</linearGradient>
<linearGradient id="paint4_linear_1130_352" x1="19.0003" y1="21.643" x2="33.2394" y2="21.643" gradientUnits="userSpaceOnUse">
<stop stop-color="#6C2C2F"/>
<stop offset="0.173" stop-color="#882730"/>
<stop offset="0.573" stop-color="#BE1833"/>
<stop offset="0.859" stop-color="#DC0436"/>
<stop offset="1" stop-color="#E60039"/>
</linearGradient>
</defs>
</svg>
