<svg width="40" height="37" viewBox="0 0 40 37" fill="none" xmlns="http://www.w3.org/2000/svg">
<path fill-rule="evenodd" clip-rule="evenodd" d="M20 26.0563C21.2056 25.0569 22.168 23.8395 22.8255 22.4823C23.483 21.1251 23.8211 19.658 23.8181 18.1751C23.8211 16.6921 23.483 15.225 22.8255 13.8678C22.168 12.5105 21.2056 11.2932 20 10.2938C17.9386 8.58372 15.2039 7.54163 12.203 7.54163C5.78849 7.54163 0.588135 12.3023 0.588135 18.1751C0.588135 24.0476 5.78849 28.8085 12.203 28.8085C15.2039 28.8085 17.9388 27.7664 20 26.0563Z" fill="#3A9BD9"/>
<path fill-rule="evenodd" clip-rule="evenodd" d="M27.797 7.54163C24.7961 7.54163 22.061 8.58372 19.9999 10.2938C19.5796 10.6428 19.1877 11.019 18.8273 11.4196H21.1718C21.4937 11.7771 21.7897 12.1532 22.0579 12.5456H17.9418C17.694 12.9084 17.4704 13.2844 17.2721 13.6716H22.7265C22.9142 14.038 23.0788 14.4139 23.2193 14.7974H16.7803C16.6453 15.1668 16.5327 15.5426 16.4431 15.9232H23.5568C23.7309 16.6634 23.8186 17.4182 23.8182 18.1751C23.8182 19.3556 23.6074 20.4914 23.2196 21.5525H16.7803C16.9204 21.9361 17.0846 22.3121 17.2721 22.6785H22.7265C22.5286 23.0657 22.3053 23.4417 22.0577 23.8045H17.9418C18.2098 24.1969 18.5055 24.573 18.8271 24.9305H21.1718C20.8118 25.3313 20.4202 25.7076 19.9999 26.0565C22.061 27.7666 24.7961 28.8087 27.797 28.8087C34.2113 28.8087 39.4118 24.0478 39.4118 18.1752C39.4118 12.3023 34.2113 7.54163 27.797 7.54163Z" fill="#CC2131"/>
<path fill-rule="evenodd" clip-rule="evenodd" d="M37.8652 24.1025C37.8652 23.9128 38.0331 23.7589 38.2406 23.7589C38.4477 23.7589 38.6156 23.9128 38.6156 24.1025C38.6156 24.2918 38.4477 24.4457 38.2406 24.4457C38.1408 24.4454 38.0451 24.4091 37.9747 24.3447C37.9043 24.2804 37.865 24.1932 37.8652 24.1025V24.1025ZM38.2404 24.3631C38.3977 24.3631 38.5253 24.2468 38.5253 24.1023C38.5253 23.9579 38.3977 23.8411 38.2404 23.8411C38.0827 23.8411 37.9551 23.9579 37.9551 24.1023C37.9551 24.2468 38.0829 24.3631 38.2404 24.3631ZM38.1898 24.253H38.1128V23.9509H38.2523C38.2811 23.9509 38.3106 23.9516 38.3361 23.9663C38.3493 23.9749 38.3601 23.9862 38.3674 23.9993C38.3748 24.0125 38.3785 24.027 38.3782 24.0418C38.3782 24.0757 38.3564 24.1078 38.3212 24.1199L38.382 24.2528H38.2965L38.2462 24.1334H38.19V24.253V24.0821H38.2325C38.2479 24.0821 38.2653 24.0829 38.2792 24.0759C38.2854 24.0721 38.2904 24.0669 38.2938 24.0608C38.2972 24.0548 38.2989 24.048 38.2987 24.0412C38.2985 24.0351 38.2967 24.0292 38.2934 24.0239C38.2902 24.0186 38.2856 24.0141 38.2801 24.0107C38.2668 24.0033 38.2452 24.0052 38.2307 24.0052H38.1902V24.253H38.1898Z" fill="#CC2131"/>
</svg>
